<svg version="1.1" id="Layer_1" xmlns="http://www.w3.org/2000/svg" xmlns:xlink="http://www.w3.org/1999/xlink" x="0px" y="0px"
	 width="100%" viewBox="0 0 496 240" enable-background="new 0 0 496 240" xml:space="preserve">
<path fill="#000000" opacity="1.000000" stroke="none" 
	d="
M350.666687,1.000000 
	C351.995697,5.376287 350.451508,9.605381 349.916901,13.833797 
	C349.541962,16.799402 350.231232,18.326761 352.344025,20.149008 
	C376.127563,40.662128 376.801514,75.404160 353.922913,96.832153 
	C336.961670,112.717972 310.203766,114.765938 290.744659,101.329727 
	C287.159546,98.854248 284.794861,98.532433 281.206482,101.261909 
	C272.728943,107.710243 263.773987,113.528069 255.229752,119.893066 
	C252.169617,122.172722 249.958984,122.236275 246.886292,119.966393 
	C237.913513,113.338005 228.653976,107.098480 219.657532,100.501022 
	C217.067352,98.601532 215.219955,98.732262 212.607391,100.473335 
	C179.650238,122.436584 139.124573,105.584389 132.189575,66.538330 
	C129.075180,49.003338 135.101944,33.601192 148.211700,21.438213 
	C151.339005,18.536760 153.065216,16.136602 151.822952,11.737957 
	C150.936722,8.600002 151.099243,5.165860 150.896896,1.431943 
	C151.444443,1.000000 151.888901,1.000000 152.858658,1.272068 
	C184.448395,23.682856 215.565125,45.749031 246.505615,68.059639 
	C250.046860,70.613167 252.288574,70.402054 255.635071,68.002319 
	C278.788940,51.399017 302.143860,35.076046 325.290009,18.462093 
	C333.260529,12.740969 341.653534,7.574009 349.000000,1.000000 
	C349.444458,1.000000 349.888885,1.000000 350.666687,1.000000 
M309.693939,96.915833 
	C314.260437,98.238586 318.928680,98.038887 323.583588,97.754120 
	C338.895081,96.817429 353.792450,83.752686 357.479065,68.092522 
	C361.303680,51.845776 354.031860,34.011497 340.367981,26.082088 
	C339.062256,25.324339 337.866852,24.350599 336.300385,25.585556 
	C333.854462,27.513884 330.963593,28.897697 328.451569,31.945210 
	C335.845978,35.041595 341.633606,39.591286 344.963165,46.689243 
	C348.400391,54.016708 348.374359,61.600945 345.837311,69.068565 
	C341.870209,80.745468 329.831177,88.084480 316.623566,87.305931 
	C303.221863,86.515938 294.782715,77.664536 290.024139,59.407139 
	C280.385590,63.296059 279.341614,65.483208 283.411469,74.429375 
	C288.522827,85.664833 297.000000,93.173187 309.693939,96.915833 
M206.513687,74.858833 
	C205.215454,76.371796 204.050354,78.028511 202.597153,79.374107 
	C193.994736,87.339485 184.008194,89.485863 173.018219,85.558876 
	C162.527054,81.810135 156.274704,73.970787 154.839081,63.084652 
	C153.280060,51.262730 157.284271,41.437214 167.819748,34.910027 
	C169.576263,33.821800 171.357635,32.773735 174.016876,31.171139 
	C169.096191,29.091509 166.569244,22.809155 160.810791,26.795942 
	C148.804611,35.108246 142.556122,46.966286 143.611160,61.380116 
	C145.264297,83.965240 164.697083,100.297707 187.607468,97.828918 
	C202.282776,96.247513 217.863678,82.964165 220.678757,68.512520 
	C220.988449,66.922737 221.656174,65.243439 219.802612,64.007416 
	C217.240723,62.299065 214.727127,60.518307 211.736206,58.453281 
	C211.095337,64.560158 209.874863,69.689468 206.513687,74.858833 
M327.336761,55.160023 
	C323.844208,50.294388 319.263916,48.771973 315.034271,51.070877 
	C310.930786,53.301216 309.168457,58.487644 311.104584,62.635845 
	C313.005585,66.708809 317.661438,68.777496 321.963623,67.460762 
	C326.542786,66.059250 328.856628,61.290562 327.336761,55.160023 
M189.438873,64.918533 
	C192.485794,61.045086 192.806427,57.013969 189.578430,53.195255 
	C186.813797,49.924686 183.009033,49.281796 179.205521,50.904171 
	C175.022034,52.688625 173.607605,56.320492 174.267609,60.704445 
	C175.283951,67.455383 182.326599,69.719101 189.438873,64.918533 
z"/>
<path fill="#000000" opacity="1.000000" stroke="none" 
	d="
M474.466858,241.000000 
	C479.658936,231.201935 483.443909,220.875824 482.647369,209.332504 
	C481.988037,199.777267 479.952179,190.605301 474.546448,182.472122 
	C464.772614,167.766861 445.582306,167.585159 435.285614,181.981628 
	C426.005402,194.956924 422.628510,223.479736 435.871643,240.683167 
	C430.645081,241.000000 425.290131,241.000000 419.467590,241.000000 
	C402.552399,221.615479 405.605011,195.847031 420.205017,180.650909 
	C441.737854,158.238937 476.326050,160.913727 494.137665,186.379135 
	C494.897552,187.465500 495.690887,188.528442 496.734314,189.801147 
	C497.000000,203.354233 497.000000,216.708450 496.791443,230.792480 
	C494.388580,234.681519 492.194275,237.840759 490.000000,241.000000 
	C484.977905,241.000000 479.955811,241.000000 474.466858,241.000000 
z"/>
<path fill="#000000" opacity="1.000000" stroke="none" 
	d="
M170.468277,241.000000 
	C171.372940,228.333313 172.317627,215.964355 163.507996,204.872849 
	C157.415817,197.202667 152.532837,188.577652 147.013672,180.444321 
	C144.445602,176.659912 141.543488,173.224258 136.322662,173.256409 
	C134.322662,173.268723 133.213348,172.164505 133.281525,170.126953 
	C133.360260,167.773346 135.096970,167.671494 136.841660,167.671646 
	C149.005463,167.672729 161.169296,167.665787 173.333023,167.699768 
	C174.993622,167.704407 176.839615,167.672791 177.031311,170.044006 
	C177.231720,172.522491 175.633530,173.008453 173.593613,173.303253 
	C166.825027,174.281342 165.803726,176.252670 169.358749,182.020187 
	C174.213608,189.896500 179.299988,197.630081 184.864731,206.327637 
	C190.219055,197.790070 195.252869,190.385895 199.602341,182.599472 
	C202.296295,177.776749 200.259369,174.507126 194.581970,173.362671 
	C192.531891,172.949417 190.994171,172.444366 191.203690,170.022110 
	C191.405258,167.692017 193.191956,167.684784 194.898911,167.682205 
	C203.063614,167.669876 211.228485,167.649033 219.392944,167.694534 
	C221.005280,167.703522 222.880737,167.519455 223.148407,169.942078 
	C223.417801,172.380249 222.025818,173.031067 219.923691,173.379807 
	C214.230057,174.324356 211.293777,178.895386 208.401382,183.064285 
	C202.326782,191.819870 196.668961,200.864532 190.836594,209.788269 
	C189.055237,212.513824 188.159393,215.445602 188.310028,218.753265 
	C188.635376,225.896805 187.795334,233.068756 188.900116,240.599655 
	C182.978851,241.000000 176.957703,241.000000 170.468277,241.000000 
z"/>
<path fill="#000000" opacity="1.000000" stroke="none" 
	d="
M35.468269,241.000000 
	C35.855747,239.107330 35.685467,237.085876 35.687824,235.100861 
	C35.710133,216.303650 35.594666,197.505157 35.796803,178.710037 
	C35.846233,174.113724 34.318893,172.610825 29.947706,173.765198 
	C28.833710,174.059372 27.646833,174.110352 26.487747,174.195984 
	C14.075068,175.113113 10.160951,178.119064 6.720258,190.034256 
	C5.922122,192.798203 5.137545,194.746262 1.413581,194.048721 
	C1.000000,185.645767 1.000000,177.291534 1.000000,168.468658 
	C6.989766,167.884186 12.979363,167.679855 18.969328,167.668533 
	C40.126770,167.628494 61.285583,167.776688 82.440887,167.560684 
	C87.118874,167.512924 88.501320,169.121475 88.408607,173.607117 
	C88.298981,178.911636 88.967453,184.229691 89.221169,189.545578 
	C89.316544,191.544006 89.487305,193.745880 86.628464,194.091354 
	C84.087959,194.398331 83.702141,192.404404 83.131104,190.674362 
	C78.795937,177.540222 70.966087,172.493271 56.688339,173.398529 
	C53.156025,173.622467 53.324516,175.902542 53.325550,178.284531 
	C53.334095,197.942642 53.344223,217.600784 53.377968,237.258850 
	C53.379665,238.246628 53.603539,239.234024 53.861984,240.610794 
	C47.978848,241.000000 41.957695,241.000000 35.468269,241.000000 
z"/>
<path fill="#000000" opacity="1.000000" stroke="none" 
	d="
M302.467957,241.000000 
	C302.217712,239.695435 302.622192,238.391281 302.625183,237.086227 
	C302.670502,217.264938 302.600586,197.443146 302.722839,177.622482 
	C302.746368,173.802673 301.050507,173.016525 297.778442,173.608459 
	C295.981476,173.933517 294.152130,174.132294 292.328491,174.248367 
	C281.670776,174.926605 277.064484,178.516449 273.961517,188.660385 
	C273.621643,189.771439 273.406067,190.920563 273.064850,192.031158 
	C272.539398,193.741379 271.332062,194.359695 269.599518,194.073502 
	C267.884064,193.790115 267.583679,192.557648 267.612274,191.121613 
	C267.748169,184.300705 267.611298,177.482834 268.590637,170.680862 
	C269.113617,167.048569 271.545929,167.684814 273.746674,167.681381 
	C296.066498,167.646545 318.386444,167.658844 340.706329,167.659805 
	C344.204193,167.659958 347.704620,167.753326 351.199127,167.647858 
	C353.925659,167.565582 355.148376,168.727539 355.234528,171.445282 
	C355.434601,177.760101 355.080994,184.096558 356.092285,190.384750 
	C356.375092,192.142944 355.778259,193.715881 353.648438,194.085129 
	C351.447632,194.466675 350.831726,192.960449 350.187958,191.325363 
	C344.496948,176.870987 339.749146,173.710602 324.196960,173.385040 
	C319.963013,173.296402 320.257568,175.900391 320.259644,178.629028 
	C320.274109,197.617569 320.288330,216.606094 320.297791,235.594635 
	C320.298553,237.092697 320.262604,238.590775 320.121826,240.544434 
	C314.311951,241.000000 308.623932,241.000000 302.467957,241.000000 
z"/>
</svg>