<svg version="1.1" id="Layer_1" xmlns="http://www.w3.org/2000/svg" xmlns:xlink="http://www.w3.org/1999/xlink" x="0px" y="0px"
	 width="100%" viewBox="0 0 500 78" enable-background="new 0 0 500 78" xml:space="preserve">
<path fill="#000000" opacity="1.000000" stroke="none" 
	d="
M501.000000,49.000000 
	C501.000000,58.990273 501.000000,68.980545 501.000000,79.000000 
	C361.312439,79.000000 221.624878,79.000000 81.481194,78.652122 
	C86.807381,73.924675 92.527962,69.457962 98.444183,65.267441 
	C99.252701,64.694756 101.305687,65.079498 102.325867,65.733368 
	C109.600510,70.395958 117.418861,72.268967 125.994003,71.027969 
	C139.056503,69.137573 148.295868,61.907761 152.371338,49.633770 
	C156.279724,37.862953 155.099472,26.102444 145.952499,16.643616 
	C142.424088,12.994903 139.983856,9.691473 141.892746,4.478203 
	C142.271317,3.444331 141.981567,2.165740 142.000000,1.000000 
	C261.666687,1.000000 381.333344,1.000000 501.000000,1.000000 
	C501.000000,9.414965 501.000000,17.738817 500.657837,26.488880 
	C499.510468,25.894127 498.622620,24.927269 497.912872,23.843763 
	C491.427368,13.943074 482.525177,8.701845 470.450043,8.965184 
	C457.461670,9.248441 445.393127,18.348001 442.054443,30.746407 
	C438.649780,43.389885 443.923187,57.109032 454.529663,63.201645 
	C467.420349,70.606361 482.200836,69.302200 491.733124,59.689365 
	C495.046082,56.348381 497.923615,52.575581 501.000000,49.000000 
M373.000000,41.497917 
	C372.995911,45.830441 372.937958,50.163788 373.003967,54.495243 
	C373.061951,58.300858 372.223053,61.365742 368.004547,62.620190 
	C366.992371,62.921173 366.289856,64.263496 365.444916,65.126877 
	C366.653137,65.740044 367.848450,66.851700 369.071716,66.883408 
	C375.732422,67.056030 382.402679,67.057701 389.062805,66.872681 
	C390.257477,66.839500 391.420258,65.657578 392.597748,65.006050 
	C391.789062,64.070724 390.976013,63.139160 390.172668,62.199280 
	C388.466248,60.202789 385.363312,58.251862 385.290100,56.194839 
	C384.834259,43.380585 385.048157,30.542177 385.062775,17.711802 
	C385.065582,15.235098 386.008453,14.583693 388.776031,14.637207 
	C396.602875,14.788548 401.744843,18.026688 404.073975,25.609671 
	C404.310059,26.378265 405.289825,26.918438 405.924469,27.564610 
	C406.579590,26.751711 407.807434,25.927980 407.792297,25.127764 
	C407.720428,21.328327 407.232544,17.539097 407.045532,13.738720 
	C406.908569,10.954744 405.448822,10.017570 402.853638,10.022912 
	C387.023529,10.055496 371.193054,10.000048 355.363586,10.106301 
	C354.061829,10.115041 351.763214,10.928480 351.629517,11.673441 
	C350.683716,16.943291 350.541534,22.267244 352.293701,27.588984 
	C353.636688,26.897171 354.640259,26.163979 354.854523,25.246471 
	C356.557129,17.954977 361.178009,15.161239 368.512756,14.666535 
	C372.709290,14.383496 373.004211,15.952505 372.994354,19.002798 
	C372.971161,26.168043 372.995117,33.333439 373.000000,41.497917 
M288.597290,55.695980 
	C288.099396,59.301529 286.410553,61.812862 282.655273,62.796585 
	C281.779968,63.025883 281.164886,64.248360 280.430054,65.013878 
	C281.437561,65.654404 282.432526,66.825706 283.454590,66.849869 
	C290.442200,67.015144 297.437134,67.014877 304.425171,66.861443 
	C305.487457,66.838120 306.526215,65.744110 307.575867,65.145332 
	C306.817993,64.183746 306.232971,62.653522 305.271606,62.361214 
	C301.554108,61.230877 300.429077,58.301392 300.178833,55.111336 
	C299.553070,47.133316 299.094940,39.130329 305.182587,32.542355 
	C306.739197,30.857801 307.856964,28.745531 309.056335,26.757357 
	C312.152740,21.624495 315.159088,16.457033 321.069122,13.919933 
	C321.749969,13.627657 322.060028,12.471645 322.541992,11.716105 
	C321.621918,11.169518 320.718018,10.185104 319.778992,10.150328 
	C315.124237,9.977946 310.456696,9.955224 305.802032,10.118967 
	C304.674622,10.158626 303.579102,11.104967 302.468933,11.634385 
	C303.220367,12.552275 304.006012,13.444616 304.714935,14.394222 
	C305.705048,15.720409 307.765198,17.661171 307.416229,18.349205 
	C304.713348,23.677786 301.540314,28.767891 297.915161,34.951344 
	C294.189331,29.085352 291.398041,24.609306 288.520752,20.189228 
	C286.607208,17.249689 286.289551,15.008858 290.454681,13.877247 
	C291.276306,13.654031 291.828033,12.437313 292.504211,11.678779 
	C291.738464,11.160810 290.978851,10.203603 290.205994,10.192745 
	C282.385864,10.082891 274.562927,10.084055 266.742889,10.198287 
	C265.980347,10.209427 265.231903,11.185494 264.476898,11.713666 
	C265.149933,12.481178 265.750793,13.330167 266.509003,14.001472 
	C269.178711,16.365177 272.288757,18.351759 274.512817,21.069715 
	C277.652893,24.907154 279.957062,29.417635 282.971008,33.371735 
	C287.868805,39.797295 290.003967,46.840763 288.597290,55.695980 
M197.190247,66.922783 
	C204.019913,66.939209 210.851227,67.037560 217.677780,66.899635 
	C218.969193,66.873528 220.241653,65.908821 221.522858,65.377205 
	C220.614182,64.395592 219.872498,62.876644 218.765671,62.532703 
	C215.391449,61.484188 213.857529,59.375385 213.797989,55.960285 
	C213.571991,42.999733 213.284119,30.039759 213.196167,17.078363 
	C213.189926,16.159365 214.485565,14.589602 215.392670,14.408518 
	C222.267258,13.036153 229.331863,17.383738 231.901505,24.184256 
	C232.382935,25.458313 233.304337,26.566116 234.022705,27.750647 
	C234.594360,27.607296 235.166000,27.463947 235.737656,27.320599 
	C235.737656,22.279156 235.887573,17.228556 235.580856,12.205843 
	C235.533203,11.425727 233.403580,10.163366 232.228027,10.153438 
	C216.070587,10.016954 199.911026,10.005265 183.754181,10.174119 
	C182.547287,10.186732 180.529724,11.639402 180.309341,12.713935 
	C179.547226,16.429716 179.240067,20.270123 179.145905,24.072655 
	C179.117355,25.225048 180.339722,26.408421 180.989136,27.577608 
	C181.827652,26.690037 183.091721,25.941784 183.435349,24.892193 
	C185.605164,18.264481 189.716797,15.119854 197.001678,14.671885 
	C201.652222,14.385911 202.035156,15.973385 202.014679,19.493458 
	C201.949753,30.654600 201.948212,41.816624 202.014725,52.977760 
	C202.040451,57.295872 201.132950,60.739231 196.491882,62.483959 
	C194.100235,63.383060 192.764908,65.278961 197.190247,66.922783 
z"/>
<path fill="#002857" opacity="1.000000" stroke="none" 
	d="
M141.600006,1.000000 
	C141.981567,2.165740 142.271317,3.444331 141.892746,4.478203 
	C139.983856,9.691473 142.424088,12.994903 145.952499,16.643616 
	C155.099472,26.102444 156.279724,37.862953 152.371338,49.633770 
	C148.295868,61.907761 139.056503,69.137573 125.994003,71.027969 
	C117.418861,72.268967 109.600510,70.395958 102.325867,65.733368 
	C101.305687,65.079498 99.252701,64.694756 98.444183,65.267441 
	C92.527962,69.457962 86.807381,73.924675 81.012535,78.652122 
	C78.958336,79.000000 76.916664,79.000000 74.424965,78.652122 
	C68.773300,74.264709 63.554379,70.247162 58.378120,66.175377 
	C56.151646,64.423965 54.235462,64.403091 51.738907,66.056152 
	C35.909191,76.537560 12.636307,71.800285 3.672885,52.667110 
	C3.171001,51.595798 1.908486,50.880829 1.000000,50.000000 
	C1.000000,42.645748 1.000000,35.291496 1.329333,27.363607 
	C3.327673,24.188126 4.449831,20.850960 6.770372,19.125198 
	C13.192918,14.348825 14.342934,8.211478 13.000000,1.000000 
	C14.066669,1.000000 15.133339,1.000000 16.607773,1.349635 
	C17.849979,2.701843 18.517710,3.937045 19.543709,4.672321 
	C36.768017,17.016035 54.209179,29.066662 71.188606,41.736626 
	C76.123985,45.419376 79.531769,44.667095 83.891891,41.507839 
	C100.649628,29.365519 117.550705,17.421125 134.327789,5.305249 
	C135.813431,4.232372 136.788040,2.451852 138.000000,0.999998 
	C139.066666,1.000000 140.133347,1.000000 141.600006,1.000000 
M132.163818,23.521835 
	C138.808899,28.210703 141.234772,35.500778 138.868286,43.669632 
	C136.672241,51.250122 130.025467,56.896141 122.073593,56.782181 
	C118.275948,56.727757 113.542976,55.912975 110.943230,53.556519 
	C106.903656,49.894985 104.323769,44.623062 100.989967,39.839821 
	C99.451744,40.838284 95.751740,41.827343 97.611267,45.767475 
	C99.430748,49.622780 101.417381,53.770256 104.435074,56.619949 
	C113.768539,65.433807 130.493256,65.908501 140.036194,54.628670 
	C148.365799,44.782993 148.185242,29.736984 138.703186,20.320522 
	C134.641388,16.286825 132.543350,16.296700 128.722427,20.645380 
	C129.695633,21.463905 130.663376,22.277830 132.163818,23.521835 
M19.541859,18.031775 
	C10.687077,23.833881 6.637443,35.292439 9.791086,45.621868 
	C12.983522,56.078362 22.056231,62.938545 32.768257,62.995689 
	C44.879662,63.060295 53.604683,56.851898 57.127762,46.254822 
	C58.640999,41.703144 55.989056,40.859737 52.473713,39.460789 
	C50.344624,50.016193 44.714191,56.703251 33.658291,56.913761 
	C25.804684,57.063297 18.714745,52.368481 16.454479,45.605011 
	C12.827100,34.750679 16.680632,26.561115 26.399548,19.364906 
	C24.311569,18.791412 22.223593,18.217918 19.541859,18.031775 
M28.185190,38.416203 
	C30.188156,43.424427 33.588375,45.363163 36.383514,42.744621 
	C37.724255,41.488583 38.884296,38.923901 38.533749,37.294468 
	C38.188450,35.689419 35.471214,33.158123 34.428806,33.433514 
	C32.138180,34.038658 30.247858,36.159081 28.185190,38.416203 
M122.979019,33.277786 
	C120.880814,34.177750 118.388756,34.665939 116.843483,36.143982 
	C116.018005,36.933548 116.217262,39.864922 117.057129,41.043781 
	C118.023483,42.400169 120.397446,43.809994 121.815758,43.518932 
	C123.562042,43.160564 126.073044,41.181595 126.219978,39.701206 
	C126.413002,37.756416 124.623299,35.614834 122.979019,33.277786 
z"/>
<path fill="#000000" opacity="1.000000" stroke="none" 
	d="
M137.531342,0.999998 
	C136.788040,2.451852 135.813431,4.232372 134.327789,5.305249 
	C117.550705,17.421125 100.649628,29.365519 83.891891,41.507839 
	C79.531769,44.667095 76.123985,45.419376 71.188606,41.736626 
	C54.209179,29.066662 36.768017,17.016035 19.543709,4.672321 
	C18.517710,3.937045 17.849979,2.701843 17.007769,1.349635 
	C57.020893,1.000000 97.041786,1.000000 137.531342,0.999998 
z"/>
<path fill="#002857" opacity="1.000000" stroke="none" 
	d="
M501.000000,48.531422 
	C497.923615,52.575581 495.046082,56.348381 491.733124,59.689365 
	C482.200836,69.302200 467.420349,70.606361 454.529663,63.201645 
	C443.923187,57.109032 438.649780,43.389885 442.054443,30.746407 
	C445.393127,18.348001 457.461670,9.248441 470.450043,8.965184 
	C482.525177,8.701845 491.427368,13.943074 497.912872,23.843763 
	C498.622620,24.927269 499.510468,25.894127 500.657837,26.957546 
	C501.000000,34.020947 501.000000,41.041897 501.000000,48.531422 
M479.561920,15.800611 
	C471.841827,11.075554 464.027588,12.435609 459.162384,19.830715 
	C452.452179,30.030304 451.944122,41.232040 456.422546,52.177383 
	C461.634155,64.914719 474.736145,67.264977 482.848816,57.579796 
	C492.120697,46.510715 490.829010,26.087471 479.561920,15.800611 
z"/>
<path fill="#000000" opacity="1.000000" stroke="none" 
	d="
M1.000000,50.468658 
	C1.908486,50.880829 3.171001,51.595798 3.672885,52.667110 
	C12.636307,71.800285 35.909191,76.537560 51.738907,66.056152 
	C54.235462,64.403091 56.151646,64.423965 58.378120,66.175377 
	C63.554379,70.247162 68.773300,74.264709 73.987465,78.652122 
	C49.771503,79.000000 25.543007,79.000000 1.000000,79.000000 
	C1.000000,69.648125 1.000000,60.292721 1.000000,50.468658 
z"/>
<path fill="#000000" opacity="1.000000" stroke="none" 
	d="
M12.520824,1.000000 
	C14.342934,8.211478 13.192918,14.348825 6.770372,19.125198 
	C4.449831,20.850960 3.327673,24.188126 1.329333,26.894985 
	C1.000000,18.439264 1.000000,9.878527 1.000000,1.000000 
	C4.674453,1.000000 8.358051,1.000000 12.520824,1.000000 
z"/>
<path fill="#002857" opacity="1.000000" stroke="none" 
	d="
M373.000000,40.998344 
	C372.995117,33.333439 372.971161,26.168043 372.994354,19.002798 
	C373.004211,15.952505 372.709290,14.383496 368.512756,14.666535 
	C361.178009,15.161239 356.557129,17.954977 354.854523,25.246471 
	C354.640259,26.163979 353.636688,26.897171 352.293701,27.588984 
	C350.541534,22.267244 350.683716,16.943291 351.629517,11.673441 
	C351.763214,10.928480 354.061829,10.115041 355.363586,10.106301 
	C371.193054,10.000048 387.023529,10.055496 402.853638,10.022912 
	C405.448822,10.017570 406.908569,10.954744 407.045532,13.738720 
	C407.232544,17.539097 407.720428,21.328327 407.792297,25.127764 
	C407.807434,25.927980 406.579590,26.751711 405.924469,27.564613 
	C405.289825,26.918438 404.310059,26.378265 404.073975,25.609671 
	C401.744843,18.026688 396.602875,14.788548 388.776031,14.637207 
	C386.008453,14.583693 385.065582,15.235098 385.062775,17.711802 
	C385.048157,30.542177 384.834259,43.380585 385.290100,56.194839 
	C385.363312,58.251862 388.466248,60.202789 390.172668,62.199280 
	C390.976013,63.139160 391.789062,64.070724 392.597748,65.006042 
	C391.420258,65.657578 390.257477,66.839500 389.062805,66.872681 
	C382.402679,67.057701 375.732422,67.056030 369.071716,66.883408 
	C367.848450,66.851700 366.653137,65.740044 365.444916,65.126892 
	C366.289856,64.263496 366.992371,62.921173 368.004547,62.620190 
	C372.223053,61.365742 373.061951,58.300858 373.003967,54.495243 
	C372.937958,50.163788 372.995911,45.830441 373.000000,40.998344 
z"/>
<path fill="#002857" opacity="1.000000" stroke="none" 
	d="
M288.701843,55.276276 
	C290.003967,46.840763 287.868805,39.797295 282.971008,33.371735 
	C279.957062,29.417635 277.652893,24.907154 274.512817,21.069715 
	C272.288757,18.351759 269.178711,16.365177 266.509003,14.001472 
	C265.750793,13.330167 265.149933,12.481178 264.476898,11.713664 
	C265.231903,11.185494 265.980347,10.209427 266.742889,10.198287 
	C274.562927,10.084055 282.385864,10.082891 290.205994,10.192745 
	C290.978851,10.203603 291.738464,11.160810 292.504211,11.678779 
	C291.828033,12.437313 291.276306,13.654031 290.454681,13.877247 
	C286.289551,15.008858 286.607208,17.249689 288.520752,20.189228 
	C291.398041,24.609306 294.189331,29.085352 297.915161,34.951344 
	C301.540314,28.767891 304.713348,23.677786 307.416229,18.349205 
	C307.765198,17.661171 305.705048,15.720409 304.714935,14.394222 
	C304.006012,13.444616 303.220367,12.552275 302.468933,11.634384 
	C303.579102,11.104967 304.674622,10.158626 305.802032,10.118967 
	C310.456696,9.955224 315.124237,9.977946 319.778992,10.150328 
	C320.718018,10.185104 321.621918,11.169518 322.541992,11.716101 
	C322.060028,12.471645 321.749969,13.627657 321.069122,13.919933 
	C315.159088,16.457033 312.152740,21.624495 309.056335,26.757357 
	C307.856964,28.745531 306.739197,30.857801 305.182587,32.542355 
	C299.094940,39.130329 299.553070,47.133316 300.178833,55.111336 
	C300.429077,58.301392 301.554108,61.230877 305.271606,62.361214 
	C306.232971,62.653522 306.817993,64.183746 307.575867,65.145325 
	C306.526215,65.744110 305.487457,66.838120 304.425171,66.861443 
	C297.437134,67.014877 290.442200,67.015144 283.454590,66.849869 
	C282.432526,66.825706 281.437561,65.654404 280.430054,65.013870 
	C281.164886,64.248360 281.779968,63.025883 282.655273,62.796585 
	C286.410553,61.812862 288.099396,59.301529 288.701843,55.276276 
z"/>
<path fill="#002857" opacity="1.000000" stroke="none" 
	d="
M196.780884,66.875351 
	C192.764908,65.278961 194.100235,63.383060 196.491882,62.483959 
	C201.132950,60.739231 202.040451,57.295872 202.014725,52.977760 
	C201.948212,41.816624 201.949753,30.654600 202.014679,19.493458 
	C202.035156,15.973385 201.652222,14.385911 197.001678,14.671885 
	C189.716797,15.119854 185.605164,18.264481 183.435349,24.892193 
	C183.091721,25.941784 181.827652,26.690037 180.989136,27.577606 
	C180.339722,26.408421 179.117355,25.225048 179.145905,24.072655 
	C179.240067,20.270123 179.547226,16.429716 180.309341,12.713935 
	C180.529724,11.639402 182.547287,10.186732 183.754181,10.174119 
	C199.911026,10.005265 216.070587,10.016954 232.228027,10.153438 
	C233.403580,10.163366 235.533203,11.425727 235.580856,12.205843 
	C235.887573,17.228556 235.737656,22.279156 235.737656,27.320599 
	C235.166000,27.463947 234.594360,27.607296 234.022705,27.750647 
	C233.304337,26.566116 232.382935,25.458313 231.901505,24.184256 
	C229.331863,17.383738 222.267258,13.036153 215.392670,14.408518 
	C214.485565,14.589602 213.189926,16.159365 213.196167,17.078363 
	C213.284119,30.039759 213.571991,42.999733 213.797989,55.960285 
	C213.857529,59.375385 215.391449,61.484188 218.765671,62.532703 
	C219.872498,62.876644 220.614182,64.395592 221.522858,65.377213 
	C220.241653,65.908821 218.969193,66.873528 217.677780,66.899635 
	C210.851227,67.037560 204.019913,66.939209 196.780884,66.875351 
z"/>
<path fill="#000000" opacity="1.000000" stroke="none" 
	d="
M131.897461,23.306795 
	C130.663376,22.277830 129.695633,21.463905 128.722427,20.645380 
	C132.543350,16.296700 134.641388,16.286825 138.703186,20.320522 
	C148.185242,29.736984 148.365799,44.782993 140.036194,54.628670 
	C130.493256,65.908501 113.768539,65.433807 104.435074,56.619949 
	C101.417381,53.770256 99.430748,49.622780 97.611267,45.767475 
	C95.751740,41.827343 99.451744,40.838284 100.989967,39.839821 
	C104.323769,44.623062 106.903656,49.894985 110.943230,53.556519 
	C113.542976,55.912975 118.275948,56.727757 122.073593,56.782181 
	C130.025467,56.896141 136.672241,51.250122 138.868286,43.669632 
	C141.234772,35.500778 138.808899,28.210703 131.897461,23.306795 
z"/>
<path fill="#000000" opacity="1.000000" stroke="none" 
	d="
M19.838737,17.838100 
	C22.223593,18.217918 24.311569,18.791412 26.399548,19.364906 
	C16.680632,26.561115 12.827100,34.750679 16.454479,45.605011 
	C18.714745,52.368481 25.804684,57.063297 33.658291,56.913761 
	C44.714191,56.703251 50.344624,50.016193 52.473713,39.460789 
	C55.989056,40.859737 58.640999,41.703144 57.127762,46.254822 
	C53.604683,56.851898 44.879662,63.060295 32.768257,62.995689 
	C22.056231,62.938545 12.983522,56.078362 9.791086,45.621868 
	C6.637443,35.292439 10.687077,23.833881 19.838737,17.838100 
z"/>
<path fill="#000000" opacity="1.000000" stroke="none" 
	d="
M28.189655,38.038567 
	C30.247858,36.159081 32.138180,34.038658 34.428806,33.433514 
	C35.471214,33.158123 38.188450,35.689419 38.533749,37.294468 
	C38.884296,38.923901 37.724255,41.488583 36.383514,42.744621 
	C33.588375,45.363163 30.188156,43.424427 28.189655,38.038567 
z"/>
<path fill="#000000" opacity="1.000000" stroke="none" 
	d="
M123.332626,33.417835 
	C124.623299,35.614834 126.413002,37.756416 126.219978,39.701206 
	C126.073044,41.181595 123.562042,43.160564 121.815758,43.518932 
	C120.397446,43.809994 118.023483,42.400169 117.057129,41.043781 
	C116.217262,39.864922 116.018005,36.933548 116.843483,36.143982 
	C118.388756,34.665939 120.880814,34.177750 123.332626,33.417835 
z"/>
<path fill="#000000" opacity="1.000000" stroke="none" 
	d="
M479.894897,15.969923 
	C490.829010,26.087471 492.120697,46.510715 482.848816,57.579796 
	C474.736145,67.264977 461.634155,64.914719 456.422546,52.177383 
	C451.944122,41.232040 452.452179,30.030304 459.162384,19.830715 
	C464.027588,12.435609 471.841827,11.075554 479.894897,15.969923 
z"/>
</svg>