<svg version="1.1" id="Layer_1" xmlns="http://www.w3.org/2000/svg" xmlns:xlink="http://www.w3.org/1999/xlink" x="0px" y="0px"
	 width="100%" viewBox="0 0 500 78" enable-background="new 0 0 500 78" xml:space="preserve">
<path fill="#FDFDFE" opacity="1.000000" stroke="none" 
	d="
M501.000000,44.000000 
	C501.000000,55.655514 501.000000,67.311028 501.000000,79.000000 
	C360.312439,79.000000 219.624878,79.000000 78.634048,78.706818 
	C85.486732,73.333443 92.642693,68.253258 99.820541,63.157536 
	C101.386322,64.217453 102.723030,65.183594 104.117836,66.056931 
	C117.237984,74.271965 133.967560,72.214523 144.743500,61.077126 
	C155.506790,49.952820 157.527679,32.612198 148.130020,20.456318 
	C143.437393,14.386410 139.442764,8.956187 140.979431,1.021710 
	C140.971603,1.042419 141.000000,1.000000 141.000000,1.000000 
	C261.000000,1.000000 381.000031,1.000000 501.000000,1.000000 
	C501.000000,11.419096 501.000000,21.740891 500.676453,32.347290 
	C496.980011,16.498598 480.371216,6.115465 464.414246,10.164555 
	C447.727570,14.398813 437.897522,31.189440 442.825348,47.040512 
	C447.777527,62.969975 465.385590,71.420113 481.336029,65.570381 
	C491.654785,61.786041 497.417694,53.899399 501.000000,44.000000 
M202.275299,46.480743 
	C202.256973,48.977371 202.201385,51.474403 202.228348,53.970539 
	C202.279297,58.685814 201.522064,62.711147 195.559219,63.131630 
	C194.908798,63.177494 194.347183,64.482674 193.256638,65.787170 
	C203.142639,65.787170 212.024063,65.787170 221.503891,65.787170 
	C220.821411,64.565231 220.446365,63.205250 219.987946,63.176533 
	C213.447998,62.766861 212.942780,58.276962 212.970703,53.253899 
	C213.022537,43.932537 212.983566,34.610676 212.982666,25.289021 
	C212.982315,21.548435 212.982605,17.807850 212.982605,14.069838 
	C222.760101,13.800747 230.944321,14.869471 233.076279,25.962343 
	C233.182449,26.514755 234.625626,26.810198 236.169510,27.591118 
	C235.783554,21.371929 235.457642,16.119997 235.143036,11.050552 
	C216.583817,11.050552 198.530914,11.050552 180.207550,11.050552 
	C180.207550,16.608629 180.207550,21.778393 180.207550,28.448233 
	C183.372345,23.580610 184.979843,18.766262 188.308197,16.617647 
	C191.970673,14.253333 197.215591,14.340333 202.275528,13.250772 
	C202.275528,24.889563 202.275528,35.188271 202.275299,46.480743 
M286.730927,38.022133 
	C290.432373,43.655415 288.838257,49.962933 288.973938,56.035366 
	C289.059387,59.858501 287.312531,62.302410 283.320160,63.037495 
	C282.349060,63.216305 281.541779,64.284828 279.586090,65.745949 
	C290.088745,65.745949 298.964294,65.745949 309.285797,65.745949 
	C307.647980,64.257980 307.017792,63.176155 306.290985,63.106762 
	C301.060364,62.607319 300.227600,59.249390 299.806793,54.757713 
	C298.865936,44.715023 300.520050,35.625118 307.450897,27.899063 
	C308.439758,26.796745 309.081360,25.390318 309.955658,24.176481 
	C313.102936,19.806917 315.319733,14.443243 321.562775,13.318424 
	C321.852051,13.266305 321.910187,11.931245 322.094513,11.111287 
	C315.279205,11.111287 308.764832,11.111287 302.250488,11.111287 
	C302.113708,11.509923 301.976959,11.908560 301.840179,12.307196 
	C302.759186,12.815013 303.624146,13.577107 304.606689,13.786002 
	C308.563049,14.627140 309.042053,17.514807 307.595215,20.224802 
	C304.757446,25.539961 301.282562,30.514927 297.804504,36.055767 
	C294.085052,30.205688 290.831085,25.180408 287.676788,20.093332 
	C285.658234,16.837904 285.033112,14.098433 290.341248,13.732762 
	C291.170685,13.675625 291.926331,12.547156 293.762177,11.075562 
	C283.132935,11.075562 274.128998,11.075562 264.567383,11.075562 
	C265.186096,12.276052 265.518250,13.505512 265.867493,13.510387 
	C271.101379,13.583469 273.179688,17.563744 275.565826,21.156109 
	C279.155975,26.561121 282.712402,31.988556 286.730927,38.022133 
M384.413452,28.501728 
	C384.413452,23.755865 384.413452,19.010000 384.413452,13.011334 
	C389.873077,14.324284 395.096863,14.420102 398.835358,16.824963 
	C402.182831,18.978323 403.893921,23.675505 406.817261,27.970720 
	C406.817261,21.417366 406.817261,16.185385 406.817261,11.041376 
	C388.185272,11.041376 370.141876,11.041376 351.988281,11.041376 
	C351.670013,16.498007 351.371887,21.608913 351.073761,26.719822 
	C352.868286,26.530140 353.995758,25.846994 354.392578,24.867752 
	C358.317993,15.180669 363.160004,12.561391 373.862152,14.658628 
	C373.862152,28.073761 373.908630,41.529053 373.834503,54.983681 
	C373.811523,59.151978 372.535278,62.517380 367.568695,63.091499 
	C366.801880,63.180141 366.166565,64.406731 364.937164,65.643570 
	C374.934723,65.643570 383.764069,65.643570 393.247772,65.643570 
	C392.468811,64.415337 392.103912,63.279354 391.681427,63.257515 
	C384.814514,62.902534 384.496521,57.991158 384.453094,52.960560 
	C384.385590,45.141460 384.421295,37.321468 384.413452,28.501728 
z"/>
<path fill="#062C5A" opacity="1.000000" stroke="none" 
	d="
M140.987274,1.000997 
	C139.442764,8.956187 143.437393,14.386410 148.130020,20.456318 
	C157.527679,32.612198 155.506790,49.952820 144.743500,61.077126 
	C133.967560,72.214523 117.237984,74.271965 104.117836,66.056931 
	C102.723030,65.183594 101.386322,64.217453 99.820541,63.157536 
	C92.642693,68.253258 85.486732,73.333443 78.165390,78.706818 
	C78.000000,79.000000 77.500000,79.000000 77.059616,78.722923 
	C69.448601,73.353958 62.277977,68.262070 55.144684,63.196697 
	C54.492344,63.561935 54.046730,63.762772 53.653637,64.038498 
	C34.083012,77.765610 11.095922,70.690987 2.506975,48.318130 
	C2.183909,47.476601 1.510272,46.769657 1.000000,46.000000 
	C1.000000,41.310745 1.000000,36.621490 1.341087,31.341232 
	C3.869747,26.495974 5.223838,21.409286 8.443369,18.185677 
	C13.086806,13.536354 15.509705,9.101964 13.144768,2.719105 
	C13.098304,2.593701 13.528535,2.291676 14.148703,1.636314 
	C24.602959,9.079964 35.113731,16.564104 45.624767,24.047865 
	C56.180283,31.563293 66.736061,39.078350 77.449089,46.705608 
	C84.327248,41.805092 91.103264,37.021915 97.832451,32.173759 
	C112.230225,21.800652 126.603790,11.393942 140.987274,1.000997 
M44.218391,52.893223 
	C34.817417,58.525665 24.357843,57.147503 19.224867,48.647404 
	C16.996870,44.957890 15.998545,39.898418 16.168449,35.528316 
	C16.457762,28.086874 21.983290,23.802774 28.708054,20.670610 
	C26.005148,18.761045 23.854834,17.241877 21.825346,15.808071 
	C11.503076,21.751354 6.327885,32.255413 8.358451,42.703510 
	C10.558608,54.024220 19.521942,62.549217 30.631201,63.887054 
	C41.315186,65.173668 52.016781,59.172787 56.713875,49.261265 
	C59.834633,42.676033 59.119572,40.981880 53.308918,38.699703 
	C50.381084,43.436901 47.596886,47.941692 44.218391,52.893223 
M109.025803,51.526634 
	C106.634491,47.151382 104.243172,42.776134 101.843323,38.385269 
	C95.087685,42.072132 94.768013,42.772129 98.645866,50.001167 
	C103.646111,59.322521 111.550819,64.271095 122.149857,63.914318 
	C132.737198,63.557922 140.469650,58.133945 144.705521,48.500221 
	C148.971268,38.798618 147.303207,29.609688 140.484680,21.519609 
	C134.715637,14.674712 133.350998,14.679059 126.697945,20.866226 
	C127.282402,21.237041 127.802689,21.619135 128.367203,21.917597 
	C138.825699,27.447088 142.324982,38.595581 136.508286,47.883266 
	C130.706055,57.147869 119.311378,58.893879 109.025803,51.526634 
M117.254105,33.732994 
	C114.084358,38.402046 114.866257,43.145493 119.369171,43.923626 
	C121.502884,44.292347 124.803047,43.199760 126.089478,41.585548 
	C127.210304,40.179119 127.023743,36.682060 126.028786,34.869717 
	C124.283272,31.690182 121.058151,31.382532 117.254105,33.732994 
M27.915573,36.285866 
	C26.989882,39.814289 27.881748,43.100048 31.458307,43.810875 
	C33.675682,44.251572 37.028343,43.090313 38.651127,41.444748 
	C41.058571,39.003510 40.097004,35.709740 37.404682,33.641090 
	C33.752682,30.835070 30.615538,32.032898 27.915573,36.285866 
z"/>
<path fill="#FDFEFE" opacity="1.000000" stroke="none" 
	d="
M140.979431,1.021707 
	C126.603790,11.393942 112.230225,21.800652 97.832451,32.173759 
	C91.103264,37.021915 84.327248,41.805092 77.449089,46.705608 
	C66.736061,39.078350 56.180283,31.563293 45.624767,24.047865 
	C35.113731,16.564104 24.602959,9.079964 14.148703,1.636314 
	C13.528535,2.291676 13.098304,2.593701 13.144768,2.719105 
	C15.509705,9.101964 13.086806,13.536354 8.443369,18.185677 
	C5.223838,21.409286 3.869747,26.495974 1.341087,30.875116 
	C1.000000,21.025799 1.000000,11.051598 1.000000,1.000000 
	C47.354202,1.000000 93.708443,1.000000 140.531342,1.000000 
	C141.000000,1.000000 140.971603,1.042419 140.979431,1.021707 
z"/>
<path fill="#082F5C" opacity="1.000000" stroke="none" 
	d="
M501.000000,43.541931 
	C497.417694,53.899399 491.654785,61.786041 481.336029,65.570381 
	C465.385590,71.420113 447.777527,62.969975 442.825348,47.040512 
	C437.897522,31.189440 447.727570,14.398813 464.414246,10.164555 
	C480.371216,6.115465 496.980011,16.498598 500.676453,32.815948 
	C501.000000,36.361286 501.000000,39.722576 501.000000,43.541931 
M486.630005,24.137119 
	C486.169006,23.257549 485.711761,22.375982 485.246368,21.498749 
	C482.189941,15.737652 477.657257,12.540419 470.879242,12.629245 
	C464.228424,12.716405 459.849762,16.193512 457.159149,21.753801 
	C451.971649,32.474049 451.129425,43.459621 456.825623,54.303532 
	C459.837128,60.036613 464.255280,64.014442 471.302948,64.030022 
	C478.367157,64.045631 482.764832,60.031445 485.790039,54.317093 
	C490.857483,44.745174 490.326782,34.826279 486.630005,24.137119 
z"/>
<path fill="#FCFCFD" opacity="1.000000" stroke="none" 
	d="
M1.000000,46.468658 
	C1.510272,46.769657 2.183909,47.476601 2.506975,48.318130 
	C11.095922,70.690987 34.083012,77.765610 53.653637,64.038498 
	C54.046730,63.762772 54.492344,63.561935 55.144684,63.196697 
	C62.277977,68.262070 69.448601,73.353958 76.809616,78.722923 
	C51.768772,79.000000 26.537540,79.000000 1.000000,79.000000 
	C1.000000,68.314392 1.000000,57.625854 1.000000,46.468658 
z"/>
<path fill="#082F5C" opacity="1.000000" stroke="none" 
	d="
M202.275421,45.983860 
	C202.275528,35.188271 202.275528,24.889563 202.275528,13.250772 
	C197.215591,14.340333 191.970673,14.253333 188.308197,16.617647 
	C184.979843,18.766262 183.372345,23.580610 180.207550,28.448233 
	C180.207550,21.778393 180.207550,16.608629 180.207550,11.050552 
	C198.530914,11.050552 216.583817,11.050552 235.143036,11.050552 
	C235.457642,16.119997 235.783554,21.371929 236.169510,27.591118 
	C234.625626,26.810198 233.182449,26.514755 233.076279,25.962343 
	C230.944321,14.869471 222.760101,13.800747 212.982605,14.069838 
	C212.982605,17.807850 212.982315,21.548435 212.982666,25.289021 
	C212.983566,34.610676 213.022537,43.932537 212.970703,53.253899 
	C212.942780,58.276962 213.447998,62.766861 219.987946,63.176533 
	C220.446365,63.205250 220.821411,64.565231 221.503891,65.787170 
	C212.024063,65.787170 203.142639,65.787170 193.256638,65.787170 
	C194.347183,64.482674 194.908798,63.177494 195.559219,63.131630 
	C201.522064,62.711147 202.279297,58.685814 202.228348,53.970539 
	C202.201385,51.474403 202.256973,48.977371 202.275421,45.983860 
z"/>
<path fill="#082E5C" opacity="1.000000" stroke="none" 
	d="
M286.507019,37.714298 
	C282.712402,31.988556 279.155975,26.561121 275.565826,21.156109 
	C273.179688,17.563744 271.101379,13.583469 265.867493,13.510387 
	C265.518250,13.505512 265.186096,12.276052 264.567383,11.075562 
	C274.128998,11.075562 283.132935,11.075562 293.762177,11.075562 
	C291.926331,12.547156 291.170685,13.675625 290.341248,13.732762 
	C285.033112,14.098433 285.658234,16.837904 287.676788,20.093332 
	C290.831085,25.180408 294.085052,30.205688 297.804504,36.055767 
	C301.282562,30.514927 304.757446,25.539961 307.595215,20.224802 
	C309.042053,17.514807 308.563049,14.627140 304.606689,13.786002 
	C303.624146,13.577107 302.759186,12.815013 301.840179,12.307196 
	C301.976959,11.908560 302.113708,11.509923 302.250488,11.111287 
	C308.764832,11.111287 315.279205,11.111287 322.094513,11.111287 
	C321.910187,11.931245 321.852051,13.266305 321.562775,13.318424 
	C315.319733,14.443243 313.102936,19.806917 309.955658,24.176481 
	C309.081360,25.390318 308.439758,26.796745 307.450897,27.899063 
	C300.520050,35.625118 298.865936,44.715023 299.806793,54.757713 
	C300.227600,59.249390 301.060364,62.607319 306.290985,63.106762 
	C307.017792,63.176155 307.647980,64.257980 309.285797,65.745949 
	C298.964294,65.745949 290.088745,65.745949 279.586090,65.745949 
	C281.541779,64.284828 282.349060,63.216305 283.320160,63.037495 
	C287.312531,62.302410 289.059387,59.858501 288.973938,56.035366 
	C288.838257,49.962933 290.432373,43.655415 286.507019,37.714298 
z"/>
<path fill="#042B59" opacity="1.000000" stroke="none" 
	d="
M384.413361,29.001789 
	C384.421295,37.321468 384.385590,45.141460 384.453094,52.960560 
	C384.496521,57.991158 384.814514,62.902534 391.681427,63.257515 
	C392.103912,63.279354 392.468811,64.415337 393.247772,65.643570 
	C383.764069,65.643570 374.934723,65.643570 364.937164,65.643570 
	C366.166565,64.406731 366.801880,63.180141 367.568695,63.091499 
	C372.535278,62.517380 373.811523,59.151978 373.834503,54.983681 
	C373.908630,41.529053 373.862152,28.073761 373.862152,14.658628 
	C363.160004,12.561391 358.317993,15.180669 354.392578,24.867752 
	C353.995758,25.846994 352.868286,26.530140 351.073761,26.719822 
	C351.371887,21.608913 351.670013,16.498007 351.988281,11.041376 
	C370.141876,11.041376 388.185272,11.041376 406.817261,11.041376 
	C406.817261,16.185385 406.817261,21.417366 406.817261,27.970720 
	C403.893921,23.675505 402.182831,18.978323 398.835358,16.824963 
	C395.096863,14.420102 389.873077,14.324284 384.413452,13.011334 
	C384.413452,19.010000 384.413452,23.755865 384.413361,29.001789 
z"/>
<path fill="#F6F7F9" opacity="1.000000" stroke="none" 
	d="
M44.515541,52.669853 
	C47.596886,47.941692 50.381084,43.436901 53.308918,38.699703 
	C59.119572,40.981880 59.834633,42.676033 56.713875,49.261265 
	C52.016781,59.172787 41.315186,65.173668 30.631201,63.887054 
	C19.521942,62.549217 10.558608,54.024220 8.358451,42.703510 
	C6.327885,32.255413 11.503076,21.751354 21.825346,15.808071 
	C23.854834,17.241877 26.005148,18.761045 28.708054,20.670610 
	C21.983290,23.802774 16.457762,28.086874 16.168449,35.528316 
	C15.998545,39.898418 16.996870,44.957890 19.224867,48.647404 
	C24.357843,57.147503 34.817417,58.525665 44.515541,52.669853 
z"/>
<path fill="#F5F7F8" opacity="1.000000" stroke="none" 
	d="
M109.301941,51.768211 
	C119.311378,58.893879 130.706055,57.147869 136.508286,47.883266 
	C142.324982,38.595581 138.825699,27.447088 128.367203,21.917597 
	C127.802689,21.619135 127.282402,21.237041 126.697945,20.866226 
	C133.350998,14.679059 134.715637,14.674712 140.484680,21.519609 
	C147.303207,29.609688 148.971268,38.798618 144.705521,48.500221 
	C140.469650,58.133945 132.737198,63.557922 122.149857,63.914318 
	C111.550819,64.271095 103.646111,59.322521 98.645866,50.001167 
	C94.768013,42.772129 95.087685,42.072132 101.843323,38.385269 
	C104.243172,42.776134 106.634491,47.151382 109.301941,51.768211 
z"/>
<path fill="#F3F4F6" opacity="1.000000" stroke="none" 
	d="
M117.544754,33.488194 
	C121.058151,31.382532 124.283272,31.690182 126.028786,34.869717 
	C127.023743,36.682060 127.210304,40.179119 126.089478,41.585548 
	C124.803047,43.199760 121.502884,44.292347 119.369171,43.923626 
	C114.866257,43.145493 114.084358,38.402046 117.544754,33.488194 
z"/>
<path fill="#F4F6F8" opacity="1.000000" stroke="none" 
	d="
M28.023407,35.936928 
	C30.615538,32.032898 33.752682,30.835070 37.404682,33.641090 
	C40.097004,35.709740 41.058571,39.003510 38.651127,41.444748 
	C37.028343,43.090313 33.675682,44.251572 31.458307,43.810875 
	C27.881748,43.100048 26.989882,39.814289 28.023407,35.936928 
z"/>
<path fill="#FCFDFD" opacity="1.000000" stroke="none" 
	d="
M486.772064,24.499458 
	C490.326782,34.826279 490.857483,44.745174 485.790039,54.317093 
	C482.764832,60.031445 478.367157,64.045631 471.302948,64.030022 
	C464.255280,64.014442 459.837128,60.036613 456.825623,54.303532 
	C451.129425,43.459621 451.971649,32.474049 457.159149,21.753801 
	C459.849762,16.193512 464.228424,12.716405 470.879242,12.629245 
	C477.657257,12.540419 482.189941,15.737652 485.246368,21.498749 
	C485.711761,22.375982 486.169006,23.257549 486.772064,24.499458 
z"/>
</svg>