<svg version="1.1" id="Layer_1" xmlns="http://www.w3.org/2000/svg" xmlns:xlink="http://www.w3.org/1999/xlink" x="0px" y="0px"
	 width="100%" viewBox="0 0 500 78" enable-background="new 0 0 500 78" xml:space="preserve">
<path fill="#000000" opacity="1.000000" stroke="none" 
	d="
M501.000000,49.000004 
	C501.000000,58.990273 501.000000,68.980545 501.000000,79.000000 
	C361.312439,79.000000 221.624878,79.000000 81.126709,78.772072 
	C86.877647,73.640541 93.439209,68.736938 100.312569,63.983948 
	C102.242882,65.362785 103.861389,66.591011 105.848419,67.928558 
	C109.089249,68.969688 111.961563,69.901505 115.194633,70.903580 
	C117.200500,71.257988 118.845612,71.542145 120.962982,71.891220 
	C122.623390,71.581879 123.811562,71.207603 125.392860,70.903488 
	C127.523643,70.593536 129.261292,70.213440 131.363724,69.896538 
	C133.201172,69.297295 134.672882,68.632751 136.146637,67.972740 
	C156.409821,58.898087 160.484650,29.315189 144.488464,15.124876 
	C141.541199,12.510354 140.720612,9.573736 140.903229,5.628640 
	C140.926529,4.504233 140.879944,3.751788 140.903534,2.671002 
	C140.982498,1.895107 140.991257,1.447554 141.000000,1.000000 
	C261.000000,1.000000 381.000031,1.000000 501.000000,1.000000 
	C501.000000,9.414923 501.000000,17.738796 500.758484,26.870766 
	C500.049713,27.230413 499.422485,26.865376 499.138763,26.321251 
	C492.825775,14.214944 482.941193,8.301846 469.229340,9.002718 
	C454.651489,9.747859 442.461700,21.163404 441.127960,35.600792 
	C439.642761,51.678169 448.531311,62.319302 461.636841,66.604980 
	C475.818268,71.242508 490.942963,65.054008 498.105011,51.722229 
	C498.699402,50.615730 500.017914,49.898232 501.000000,49.000004 
M373.000000,21.605509 
	C372.999969,32.767162 372.929657,43.929501 373.038025,55.090099 
	C373.075989,58.999420 371.943146,61.648415 367.815552,62.744259 
	C366.534119,63.084473 365.582550,64.667122 364.479950,65.680969 
	C364.760254,66.053383 365.040558,66.425789 365.320862,66.798203 
	C374.436127,66.798203 383.551422,66.798203 394.279572,66.798203 
	C392.511536,64.639999 391.679443,62.582554 390.407898,62.260593 
	C385.970764,61.137074 384.882111,58.398457 384.944336,54.232773 
	C385.108673,43.240219 385.000000,32.243584 385.000000,21.248571 
	C385.000000,18.862526 385.000000,16.476480 385.000000,13.736689 
	C387.279724,14.298298 388.701111,14.984928 390.097015,14.936648 
	C397.994049,14.663516 402.061035,18.920622 404.115295,26.049685 
	C404.397247,27.028185 406.144531,27.584455 407.213379,28.336210 
	C407.591217,27.959547 407.969025,27.582882 408.346863,27.206219 
	C407.845734,21.546553 407.344635,15.886889 406.857605,10.386444 
	C387.933319,10.386444 369.549225,10.386444 351.181152,10.386444 
	C351.181152,16.412565 351.181152,22.050701 351.181152,27.688837 
	C351.610016,27.940620 352.038879,28.192404 352.467743,28.444187 
	C353.315613,27.165678 354.469177,25.993074 354.955536,24.589312 
	C356.584991,19.886446 358.829407,15.878342 364.297150,15.059322 
	C367.024384,14.650813 369.790344,14.501060 373.000000,14.189498 
	C373.000000,16.366505 373.000000,18.502718 373.000000,21.605509 
M264.017975,12.228727 
	C264.439819,12.806122 264.823090,13.849562 265.289551,13.888205 
	C269.552521,14.241351 271.916565,17.017948 274.069580,20.263243 
	C277.761108,25.827549 281.635315,31.271128 285.302704,36.850891 
	C289.204651,42.787430 289.607971,49.248665 288.521759,56.168438 
	C287.905304,60.095421 285.945007,61.732613 282.552216,62.874554 
	C281.365143,63.274109 280.580780,64.870171 278.883850,66.709740 
	C289.660248,66.709740 298.732330,66.709740 309.454651,66.709740 
	C307.610901,64.563156 306.743286,62.574604 305.609772,62.409302 
	C301.553284,61.817726 300.278656,58.655773 300.200012,55.793606 
	C299.987640,48.063869 298.206390,39.942757 304.780640,33.353481 
	C307.110748,31.018059 308.110962,27.414886 310.129028,24.695221 
	C313.264618,20.469511 315.723633,15.477539 321.508698,13.865112 
	C322.317444,13.639696 322.640564,11.671970 323.350403,10.167602 
	C315.701416,10.167602 309.075592,10.167602 302.449799,10.167602 
	C302.140991,10.503887 301.832184,10.840173 301.523407,11.176458 
	C302.565857,12.212737 303.433563,13.619296 304.686096,14.210438 
	C307.548615,15.561424 308.978516,17.068714 306.974884,20.216635 
	C304.041016,24.826027 301.226349,29.511259 297.927368,34.868080 
	C294.044952,28.918304 290.387665,23.780247 287.289368,18.324730 
	C286.128052,16.279877 287.038879,14.235426 290.143616,13.885056 
	C291.318390,13.752489 292.341553,12.276742 293.433807,11.413245 
	C293.154236,10.950866 292.874664,10.488486 292.595062,10.026107 
	C283.632904,10.026107 274.670532,10.002318 265.709106,10.082783 
	C265.146942,10.087830 264.592133,10.908014 264.017975,12.228727 
M202.000000,29.504814 
	C201.999878,37.836632 202.026505,46.168579 201.987442,54.500214 
	C201.969940,58.231796 200.992722,61.171360 196.670319,62.240982 
	C195.426849,62.548683 194.650391,64.743477 193.107178,66.814796 
	C203.681595,66.814796 212.647339,66.814796 221.613098,66.814796 
	C221.907394,66.418610 222.201691,66.022423 222.496002,65.626244 
	C221.282104,64.555763 220.078033,63.473888 218.851913,62.417629 
	C217.248901,61.036690 214.259186,59.707859 214.226456,58.301685 
	C213.884476,43.604294 214.015503,28.895895 214.015503,13.955721 
	C215.678452,14.254519 217.735580,14.812767 219.822311,14.964763 
	C226.921906,15.481894 230.095291,18.085365 232.073273,24.811760 
	C232.464722,26.142933 233.834091,27.186541 234.752472,28.362764 
	C235.053253,28.064968 235.354034,27.767172 235.654816,27.469376 
	C235.654816,21.726660 235.654816,15.983943 235.654816,10.389159 
	C216.917816,10.389159 198.528412,10.389159 180.243896,10.389159 
	C179.742172,16.345655 179.274338,21.899921 178.826599,27.215532 
	C182.835297,29.596912 182.668015,26.120684 183.843414,24.570892 
	C186.126450,21.560608 187.974869,17.753426 190.999069,15.909266 
	C193.796448,14.203428 197.895142,14.631589 202.000000,14.035893 
	C202.000000,18.949024 202.000000,23.728168 202.000000,29.504814 
z"/>
<path fill="#9D9D9C" opacity="1.000000" stroke="none" 
	d="
M124.999725,70.833336 
	C123.811562,71.207603 122.623390,71.581879 120.991676,71.497040 
	C118.806976,66.401016 116.847488,67.861580 114.833885,70.833321 
	C111.961563,69.901505 109.089249,68.969688 105.920105,67.533882 
	C104.395531,62.521282 103.285255,61.890060 100.000763,63.833336 
	C93.439209,68.736938 86.877647,73.640541 80.658051,78.772072 
	C78.958336,79.000000 76.916664,79.000000 74.792862,78.764816 
	C74.436256,78.034447 74.161797,77.539261 74.058426,76.790451 
	C74.240578,75.911491 74.515900,74.930847 74.223564,74.713417 
	C68.728622,70.626427 63.220009,66.549385 57.523911,62.756088 
	C57.029533,62.426857 55.205879,64.093689 53.662949,65.000961 
	C50.188171,66.720154 47.050125,68.271721 43.578358,69.469154 
	C40.582973,67.579857 38.361721,67.645302 36.545601,70.927711 
	C34.727467,71.069962 33.363384,71.117828 31.951344,70.817810 
	C29.959223,66.413551 28.434563,68.017853 26.625338,70.895920 
	C23.327065,69.911911 20.403114,68.865311 17.549442,67.422546 
	C15.126036,60.441525 10.479506,55.921474 4.051040,52.729813 
	C3.679164,51.973068 3.422915,51.486092 3.406624,50.818031 
	C3.764499,46.021168 4.027997,41.403450 3.966636,36.790051 
	C3.871647,29.648489 5.360405,23.449577 11.532065,18.787270 
	C15.308376,15.934503 18.043907,12.073731 16.580761,6.648108 
	C16.389862,5.940219 17.568958,4.862880 18.428982,4.096479 
	C28.979237,11.474454 39.301022,18.593500 49.422173,25.987188 
	C58.042950,32.284824 66.407486,38.932610 74.976959,45.302296 
	C75.604515,45.768761 76.975342,45.235264 78.041985,45.461224 
	C79.496407,45.768158 81.310677,46.361557 82.261696,45.704845 
	C94.504425,37.250786 106.541122,28.497665 118.806343,20.077147 
	C125.986023,15.148042 133.480484,10.677456 140.833344,6.000602 
	C140.720612,9.573736 141.541199,12.510354 144.488464,15.124876 
	C160.484650,29.315189 156.409821,58.898087 136.146637,67.972740 
	C134.672882,68.632751 133.201172,69.297295 131.196442,69.612030 
	C128.061996,67.208908 126.212173,67.870537 124.999725,70.833336 
M35.935123,32.540516 
	C34.353161,29.007092 33.172329,30.864649 31.355581,33.151409 
	C26.451002,38.038704 26.820557,40.514759 33.123383,44.834248 
	C34.443394,45.333893 36.540913,46.610302 36.950470,46.200359 
	C38.846569,44.302448 40.563213,42.069000 41.674507,39.648327 
	C41.968445,39.008057 39.879780,37.273968 38.311466,35.768692 
	C37.540703,34.900970 36.769936,34.033249 35.935123,32.540516 
M120.250282,32.990158 
	C119.178932,33.614666 117.703644,33.988831 117.126701,34.919754 
	C116.152969,36.490902 114.759407,38.884254 115.328842,40.083820 
	C116.257133,42.039387 118.530022,44.400421 120.409187,44.561230 
	C122.213570,44.715645 124.238594,42.291676 126.907631,40.952278 
	C127.895271,39.726910 129.973724,37.927704 129.682907,37.374893 
	C128.381302,34.900684 126.498619,32.690372 124.535057,30.666838 
	C124.324455,30.449814 122.223633,32.067005 120.250282,32.990158 
M25.294004,62.793358 
	C30.491409,67.739784 38.856491,67.425995 42.591827,61.895367 
	C43.357647,61.581642 44.123466,61.267918 45.539661,61.220669 
	C52.098927,61.683598 56.052605,57.764885 54.992378,51.301785 
	C55.383808,50.534767 55.775234,49.767754 56.904930,48.900814 
	C60.850128,47.948753 60.519089,44.580673 59.666981,42.223343 
	C58.885456,40.061268 56.433064,38.503166 54.716866,36.678947 
	C53.848026,37.801342 52.979191,38.923737 52.015347,40.820480 
	C50.580620,47.887638 47.341145,53.508831 39.490002,55.310974 
	C36.438755,53.318245 33.795715,53.380508 31.326117,56.948845 
	C31.159477,56.910122 30.992840,56.871403 30.597969,56.141140 
	C29.170380,55.984585 27.742792,55.828030 25.926676,55.372154 
	C25.480867,55.192490 25.035059,55.012825 24.669861,54.035927 
	C24.176685,52.865242 23.917688,51.506733 23.153246,50.553616 
	C17.098051,43.003906 16.691774,36.758060 21.539570,28.303860 
	C22.365129,26.864149 22.263273,24.892639 23.182974,22.987486 
	C23.721491,22.713881 24.260010,22.440275 25.246273,22.677284 
	C29.274921,23.569233 27.898888,20.421219 27.808580,18.839861 
	C27.670221,16.417061 26.292700,16.134573 24.198772,17.953730 
	C24.198772,17.953730 23.819267,17.832949 23.669147,17.238729 
	C22.779360,17.103598 21.889570,16.968466 20.372808,17.136999 
	C7.801729,25.668732 7.353689,38.103809 10.108362,46.666668 
	C12.492386,54.077370 18.305243,58.656780 25.294004,62.793358 
M113.294006,62.793358 
	C118.491409,67.739784 126.856476,67.425987 130.642227,61.856331 
	C140.770844,56.099033 147.255020,48.241440 146.022842,35.743065 
	C145.252609,27.930317 141.561905,21.832504 134.999924,17.841398 
	C133.595734,16.987350 130.693619,18.596146 128.481567,19.070370 
	C129.274475,20.515480 129.840012,22.162092 130.906128,23.365068 
	C133.364548,26.139074 137.143555,28.251713 138.459198,31.430471 
	C141.888855,39.716957 137.654816,49.323200 128.523178,54.769901 
	C125.077560,54.455364 121.251953,52.355072 118.004173,56.926628 
	C108.909348,54.152885 103.748657,48.155106 102.816032,37.921883 
	C100.054482,39.819447 95.987473,43.181149 96.384865,43.836754 
	C99.315132,48.671017 99.761322,55.282921 105.875862,58.026272 
	C108.368057,59.144421 110.632034,60.771263 113.294006,62.793358 
z"/>
<path fill="#000000" opacity="1.000000" stroke="none" 
	d="
M78.000610,45.166664 
	C76.975342,45.235264 75.604515,45.768761 74.976959,45.302296 
	C66.407486,38.932610 58.042950,32.284824 49.422173,25.987188 
	C39.301022,18.593500 28.979237,11.474454 18.252571,3.747340 
	C17.507116,2.505591 17.253557,1.752796 17.000000,1.000000 
	C57.687561,1.000000 98.375122,1.000000 139.424072,1.322643 
	C139.225067,1.982765 138.664673,2.320243 137.835159,2.822399 
	C132.703461,6.498481 127.872238,10.054351 122.972389,13.512980 
	C107.995972,24.084290 92.993156,34.618206 78.000610,45.166664 
z"/>
<path fill="#9D9D9C" opacity="1.000000" stroke="none" 
	d="
M501.000000,48.531425 
	C500.017914,49.898232 498.699402,50.615730 498.105011,51.722229 
	C490.942963,65.054008 475.818268,71.242508 461.636841,66.604980 
	C448.531311,62.319302 439.642761,51.678169 441.127960,35.600792 
	C442.461700,21.163404 454.651489,9.747859 469.229340,9.002718 
	C482.941193,8.301846 492.825775,14.214944 499.138763,26.321251 
	C499.422485,26.865376 500.049713,27.230413 500.758484,27.339432 
	C501.000000,34.020947 501.000000,41.041897 501.000000,48.531425 
M472.305206,63.916718 
	C475.037109,62.605572 478.137939,61.753460 480.437866,59.904869 
	C491.141022,51.302147 491.360535,31.149124 483.630463,19.976233 
	C478.254669,12.206175 469.612854,11.026586 464.283997,15.179178 
	C460.548950,18.089766 457.193207,22.599178 455.702911,27.072479 
	C450.984131,41.236748 454.183319,61.306229 472.305206,63.916718 
z"/>
<path fill="#000000" opacity="1.000000" stroke="none" 
	d="
M73.887337,77.044067 
	C74.161797,77.539261 74.436256,78.034447 74.355362,78.764816 
	C49.771503,79.000000 25.543007,79.000000 1.000000,79.000000 
	C1.000000,69.648125 1.000000,60.292721 1.328265,50.473824 
	C2.159909,50.339928 2.663288,50.669521 3.166667,50.999115 
	C3.422915,51.486092 3.679164,51.973068 3.987463,53.084915 
	C8.519397,58.412766 12.999281,63.115742 17.479166,67.818718 
	C20.403114,68.865311 23.327065,69.911911 27.038044,70.966141 
	C29.216484,71.037743 30.607893,71.101715 31.999304,71.165695 
	C33.363384,71.117828 34.727467,71.069962 36.937965,70.997604 
	C39.826950,70.589836 41.869518,70.206566 43.912083,69.823296 
	C47.050125,68.271721 50.188171,66.720154 54.037308,65.071930 
	C56.353207,65.673576 58.101902,66.155510 59.536606,67.109604 
	C64.380287,70.330711 69.112503,73.719437 73.887337,77.044067 
z"/>
<path fill="#000000" opacity="1.000000" stroke="none" 
	d="
M1.000000,27.000000 
	C1.000000,18.439264 1.000000,9.878527 1.000000,1.000000 
	C4.674453,1.000000 8.358051,1.000000 12.533714,1.249166 
	C13.025779,1.498332 13.166666,1.977028 13.096519,2.402536 
	C13.021149,3.977355 12.609081,5.339758 13.080338,6.239502 
	C15.250470,10.382799 12.743294,12.629236 10.245719,15.437304 
	C7.415514,18.619354 5.377597,22.499538 2.900421,26.009287 
	C2.534206,26.528154 1.646457,26.678926 1.000000,27.000000 
z"/>
<path fill="#9D9D9C" opacity="1.000000" stroke="none" 
	d="
M1.000000,27.468624 
	C1.646457,26.678926 2.534206,26.528154 2.900421,26.009287 
	C5.377597,22.499538 7.415514,18.619354 10.245719,15.437304 
	C12.743294,12.629236 15.250470,10.382799 13.080338,6.239502 
	C12.609081,5.339758 13.021149,3.977355 13.247688,2.250435 
	C13.663044,1.461999 13.840042,1.237724 14.000000,1.000000 
	C14.750000,1.000000 15.500000,1.000000 16.625000,1.000000 
	C17.253557,1.752796 17.507116,2.505591 17.937084,3.607526 
	C17.568958,4.862880 16.389862,5.940219 16.580761,6.648108 
	C18.043907,12.073731 15.308376,15.934503 11.532065,18.787270 
	C5.360405,23.449577 3.871647,29.648489 3.966636,36.790051 
	C4.027997,41.403450 3.764499,46.021168 3.406624,50.818031 
	C2.663288,50.669521 2.159909,50.339928 1.328265,50.005165 
	C1.000000,42.645748 1.000000,35.291496 1.000000,27.468624 
z"/>
<path fill="#9D9D9C" opacity="1.000000" stroke="none" 
	d="
M138.104263,2.657722 
	C138.664673,2.320243 139.225067,1.982765 139.892731,1.322643 
	C140.000000,1.000000 140.500000,1.000000 140.750000,1.000000 
	C140.991257,1.447554 140.982498,1.895107 140.447937,2.620288 
	C139.316162,2.817851 138.710220,2.737787 138.104263,2.657722 
z"/>
<path fill="#9D9D9C" opacity="1.000000" stroke="none" 
	d="
M13.750000,1.000000 
	C13.840042,1.237724 13.663044,1.461999 13.317835,1.824926 
	C13.166666,1.977028 13.025779,1.498332 13.012890,1.249166 
	C13.000000,1.000000 13.500000,1.000000 13.750000,1.000000 
z"/>
<path fill="#9D9D9C" opacity="1.000000" stroke="none" 
	d="
M373.000000,21.122219 
	C373.000000,18.502718 373.000000,16.366505 373.000000,14.189498 
	C369.790344,14.501060 367.024384,14.650813 364.297150,15.059322 
	C358.829407,15.878342 356.584991,19.886446 354.955536,24.589312 
	C354.469177,25.993074 353.315613,27.165678 352.467743,28.444187 
	C352.038879,28.192404 351.610016,27.940620 351.181152,27.688837 
	C351.181152,22.050701 351.181152,16.412565 351.181152,10.386444 
	C369.549225,10.386444 387.933319,10.386444 406.857605,10.386444 
	C407.344635,15.886889 407.845734,21.546553 408.346863,27.206219 
	C407.969025,27.582882 407.591217,27.959547 407.213379,28.336210 
	C406.144531,27.584455 404.397247,27.028185 404.115295,26.049685 
	C402.061035,18.920622 397.994049,14.663516 390.097015,14.936648 
	C388.701111,14.984928 387.279724,14.298298 385.000000,13.736689 
	C385.000000,16.476480 385.000000,18.862526 385.000000,21.248571 
	C385.000000,32.243584 385.108673,43.240219 384.944336,54.232773 
	C384.882111,58.398457 385.970764,61.137074 390.407898,62.260593 
	C391.679443,62.582554 392.511536,64.639999 394.279572,66.798203 
	C383.551422,66.798203 374.436127,66.798203 365.320862,66.798203 
	C365.040558,66.425789 364.760254,66.053383 364.479950,65.680969 
	C365.582550,64.667122 366.534119,63.084473 367.815552,62.744259 
	C371.943146,61.648415 373.075989,58.999420 373.038025,55.090099 
	C372.929657,43.929501 372.999969,32.767162 373.000000,21.122219 
z"/>
<path fill="#9D9D9C" opacity="1.000000" stroke="none" 
	d="
M264.025940,11.788847 
	C264.592133,10.908014 265.146942,10.087830 265.709106,10.082783 
	C274.670532,10.002318 283.632904,10.026107 292.595062,10.026107 
	C292.874664,10.488486 293.154236,10.950866 293.433807,11.413245 
	C292.341553,12.276742 291.318390,13.752489 290.143616,13.885056 
	C287.038879,14.235426 286.128052,16.279877 287.289368,18.324730 
	C290.387665,23.780247 294.044952,28.918304 297.927368,34.868080 
	C301.226349,29.511259 304.041016,24.826027 306.974884,20.216635 
	C308.978516,17.068714 307.548615,15.561424 304.686096,14.210438 
	C303.433563,13.619296 302.565857,12.212737 301.523407,11.176458 
	C301.832184,10.840173 302.140991,10.503887 302.449799,10.167602 
	C309.075592,10.167602 315.701416,10.167602 323.350403,10.167602 
	C322.640564,11.671970 322.317444,13.639696 321.508698,13.865112 
	C315.723633,15.477539 313.264618,20.469511 310.129028,24.695221 
	C308.110962,27.414886 307.110748,31.018059 304.780640,33.353481 
	C298.206390,39.942757 299.987640,48.063869 300.200012,55.793606 
	C300.278656,58.655773 301.553284,61.817726 305.609772,62.409302 
	C306.743286,62.574604 307.610901,64.563156 309.454651,66.709740 
	C298.732330,66.709740 289.660248,66.709740 278.883850,66.709740 
	C280.580780,64.870171 281.365143,63.274109 282.552216,62.874554 
	C285.945007,61.732613 287.905304,60.095421 288.521759,56.168438 
	C289.607971,49.248665 289.204651,42.787430 285.302704,36.850891 
	C281.635315,31.271128 277.761108,25.827549 274.069580,20.263243 
	C271.916565,17.017948 269.552521,14.241351 265.289551,13.888205 
	C264.823090,13.849562 264.439819,12.806122 264.025940,11.788847 
z"/>
<path fill="#9D9D9C" opacity="1.000000" stroke="none" 
	d="
M202.000000,29.006063 
	C202.000000,23.728168 202.000000,18.949024 202.000000,14.035893 
	C197.895142,14.631589 193.796448,14.203428 190.999069,15.909266 
	C187.974869,17.753426 186.126450,21.560608 183.843414,24.570892 
	C182.668015,26.120684 182.835297,29.596912 178.826599,27.215532 
	C179.274338,21.899921 179.742172,16.345655 180.243896,10.389159 
	C198.528412,10.389159 216.917816,10.389159 235.654816,10.389159 
	C235.654816,15.983943 235.654816,21.726660 235.654816,27.469376 
	C235.354034,27.767172 235.053253,28.064968 234.752472,28.362764 
	C233.834091,27.186541 232.464722,26.142933 232.073273,24.811760 
	C230.095291,18.085365 226.921906,15.481894 219.822311,14.964763 
	C217.735580,14.812767 215.678452,14.254519 214.015503,13.955721 
	C214.015503,28.895895 213.884476,43.604294 214.226456,58.301685 
	C214.259186,59.707859 217.248901,61.036690 218.851913,62.417629 
	C220.078033,63.473888 221.282104,64.555763 222.496002,65.626244 
	C222.201691,66.022423 221.907394,66.418610 221.613098,66.814796 
	C212.647339,66.814796 203.681595,66.814796 193.107178,66.814796 
	C194.650391,64.743477 195.426849,62.548683 196.670319,62.240982 
	C200.992722,61.171360 201.969940,58.231796 201.987442,54.500214 
	C202.026505,46.168579 201.999878,37.836632 202.000000,29.006063 
z"/>
<path fill="#9D9D9C" opacity="1.000000" stroke="none" 
	d="
M137.835159,2.822400 
	C138.710220,2.737787 139.316162,2.817851 140.377731,2.948628 
	C140.879944,3.751788 140.926529,4.504233 140.903229,5.628640 
	C133.480484,10.677456 125.986023,15.148042 118.806343,20.077147 
	C106.541122,28.497665 94.504425,37.250786 82.261696,45.704845 
	C81.310677,46.361557 79.496407,45.768158 78.041985,45.461224 
	C92.993156,34.618206 107.995972,24.084290 122.972389,13.512980 
	C127.872238,10.054351 132.703461,6.498481 137.835159,2.822400 
z"/>
<path fill="#9D9D9C" opacity="1.000000" stroke="none" 
	d="
M100.312569,63.983948 
	C103.285255,61.890060 104.395531,62.521282 105.551598,67.424561 
	C103.861389,66.591011 102.242882,65.362785 100.312569,63.983948 
z"/>
<path fill="#9D9D9C" opacity="1.000000" stroke="none" 
	d="
M115.194633,70.903580 
	C116.847488,67.861580 118.806976,66.401016 120.519424,71.432114 
	C118.845612,71.542145 117.200500,71.257988 115.194633,70.903580 
z"/>
<path fill="#9D9D9C" opacity="1.000000" stroke="none" 
	d="
M125.392860,70.903488 
	C126.212173,67.870537 128.061996,67.208908 130.831665,69.548828 
	C129.261292,70.213440 127.523643,70.593536 125.392860,70.903488 
z"/>
<path fill="#000000" opacity="1.000000" stroke="none" 
	d="
M129.043655,55.113129 
	C137.654816,49.323200 141.888855,39.716957 138.459198,31.430471 
	C137.143555,28.251713 133.364548,26.139074 130.906128,23.365068 
	C129.840012,22.162092 129.274475,20.515480 128.481567,19.070366 
	C130.693619,18.596146 133.595734,16.987350 134.999924,17.841398 
	C141.561905,21.832504 145.252609,27.930317 146.022842,35.743065 
	C147.255020,48.241440 140.770844,56.099033 129.900040,61.957619 
	C123.771851,62.094826 118.385841,62.130745 112.999840,62.166664 
	C110.632034,60.771263 108.368057,59.144421 105.875862,58.026272 
	C99.761322,55.282921 99.315132,48.671017 96.384865,43.836754 
	C95.987473,43.181149 100.054482,39.819447 102.816032,37.921883 
	C103.748657,48.155106 108.909348,54.152885 118.792175,56.950317 
	C122.734673,56.353710 125.889168,55.733421 129.043655,55.113129 
z"/>
<path fill="#000000" opacity="1.000000" stroke="none" 
	d="
M24.798529,22.166668 
	C24.260010,22.440275 23.721491,22.713881 22.587505,23.274239 
	C12.539490,31.799576 12.166565,47.602245 24.589251,54.833157 
	C25.035059,55.012825 25.480867,55.192490 26.493132,55.659512 
	C28.315126,56.242138 29.570663,56.537407 30.826200,56.832680 
	C30.992840,56.871403 31.159477,56.910122 31.947338,56.961411 
	C35.041374,56.593765 37.514187,56.213551 39.987003,55.833336 
	C47.341145,53.508831 50.580620,47.887638 52.441650,40.414902 
	C58.688072,41.701767 58.688072,41.701767 56.166664,49.000736 
	C55.775234,49.767754 55.383808,50.534767 54.626930,51.770332 
	C51.137421,55.143982 48.013351,58.049088 44.889286,60.954193 
	C44.123466,61.267918 43.357647,61.581642 41.874836,61.977139 
	C35.771847,62.094830 30.385847,62.130749 24.999849,62.166664 
	C18.305243,58.656780 12.492386,54.077370 10.108362,46.666668 
	C7.353689,38.103809 7.801729,25.668732 21.060440,17.062813 
	C22.438471,17.270065 23.128870,17.551508 23.819267,17.832949 
	C23.819267,17.832949 24.198772,17.953730 24.550209,18.140533 
	C25.530378,19.009995 26.159111,19.692654 26.953945,20.555662 
	C26.218777,21.105145 25.508652,21.635906 24.798529,22.166668 
z"/>
<path fill="#000000" opacity="1.000000" stroke="none" 
	d="
M126.166664,41.000736 
	C124.238594,42.291676 122.213570,44.715645 120.409187,44.561230 
	C118.530022,44.400421 116.257133,42.039387 115.328842,40.083820 
	C114.759407,38.884254 116.152969,36.490902 117.126701,34.919754 
	C117.703644,33.988831 119.178932,33.614666 120.997650,32.982872 
	C126.107269,34.059216 128.253693,36.363712 126.166664,41.000736 
z"/>
<path fill="#000000" opacity="1.000000" stroke="none" 
	d="
M32.999619,44.166664 
	C26.820557,40.514759 26.451002,38.038704 32.073948,33.062630 
	C33.861267,33.037743 34.930218,33.101635 35.999172,33.165527 
	C36.769936,34.033249 37.540703,34.900970 38.646664,36.304832 
	C39.384281,41.239883 37.399570,43.689430 32.999619,44.166664 
z"/>
<path fill="#9D9D9C" opacity="1.000000" stroke="none" 
	d="
M24.629555,54.434540 
	C12.166565,47.602245 12.539490,31.799576 22.290955,23.363903 
	C22.263273,24.892639 22.365129,26.864149 21.539570,28.303860 
	C16.691774,36.758060 17.098051,43.003906 23.153246,50.553616 
	C23.917688,51.506733 24.176685,52.865242 24.629555,54.434540 
z"/>
<path fill="#9D9D9C" opacity="1.000000" stroke="none" 
	d="
M74.058426,76.790451 
	C69.112503,73.719437 64.380287,70.330711 59.536606,67.109604 
	C58.101902,66.155510 56.353207,65.673576 54.374035,64.904312 
	C55.205879,64.093689 57.029533,62.426857 57.523911,62.756088 
	C63.220009,66.549385 68.728622,70.626427 74.223564,74.713417 
	C74.515900,74.930847 74.240578,75.911491 74.058426,76.790451 
z"/>
<path fill="#9D9D9C" opacity="1.000000" stroke="none" 
	d="
M17.549442,67.422546 
	C12.999281,63.115742 8.519397,58.412766 4.103089,53.354683 
	C10.479506,55.921474 15.126036,60.441525 17.549442,67.422546 
z"/>
<path fill="#9D9D9C" opacity="1.000000" stroke="none" 
	d="
M113.146927,62.480011 
	C118.385841,62.130745 123.771851,62.094826 129.579086,62.112785 
	C126.856476,67.425987 118.491409,67.739784 113.146927,62.480011 
z"/>
<path fill="#9D9D9C" opacity="1.000000" stroke="none" 
	d="
M25.146927,62.480011 
	C30.385847,62.130749 35.771847,62.094830 41.579079,62.112785 
	C38.856491,67.425995 30.491409,67.739784 25.146927,62.480011 
z"/>
<path fill="#9D9D9C" opacity="1.000000" stroke="none" 
	d="
M56.535797,48.950775 
	C58.688072,41.701767 58.688072,41.701767 52.489151,40.027725 
	C52.979191,38.923737 53.848026,37.801342 54.716866,36.678947 
	C56.433064,38.503166 58.885456,40.061268 59.666981,42.223343 
	C60.519089,44.580673 60.850128,47.948753 56.535797,48.950775 
z"/>
<path fill="#9D9D9C" opacity="1.000000" stroke="none" 
	d="
M126.537148,40.976509 
	C128.253693,36.363712 126.107269,34.059216 121.372337,32.904457 
	C122.223633,32.067005 124.324455,30.449814 124.535057,30.666838 
	C126.498619,32.690372 128.381302,34.900684 129.682907,37.374893 
	C129.973724,37.927704 127.895271,39.726910 126.537148,40.976509 
z"/>
<path fill="#9D9D9C" opacity="1.000000" stroke="none" 
	d="
M33.061501,44.500458 
	C37.399570,43.689430 39.384281,41.239883 38.933502,36.441555 
	C39.879780,37.273968 41.968445,39.008057 41.674507,39.648327 
	C40.563213,42.069000 38.846569,44.302448 36.950470,46.200359 
	C36.540913,46.610302 34.443394,45.333893 33.061501,44.500458 
z"/>
<path fill="#9D9D9C" opacity="1.000000" stroke="none" 
	d="
M45.214474,61.087433 
	C48.013351,58.049088 51.137421,55.143982 54.573189,52.098484 
	C56.052605,57.764885 52.098927,61.683598 45.214474,61.087433 
z"/>
<path fill="#9D9D9C" opacity="1.000000" stroke="none" 
	d="
M128.783417,54.941517 
	C125.889168,55.733421 122.734673,56.353710 119.203186,56.903664 
	C121.251953,52.355072 125.077560,54.455364 128.783417,54.941517 
z"/>
<path fill="#9D9D9C" opacity="1.000000" stroke="none" 
	d="
M39.738503,55.572151 
	C37.514187,56.213551 35.041374,56.593765 32.197372,56.903656 
	C33.795715,53.380508 36.438755,53.318245 39.738503,55.572151 
z"/>
<path fill="#9D9D9C" opacity="1.000000" stroke="none" 
	d="
M25.022400,22.421978 
	C25.508652,21.635906 26.218777,21.105145 26.953945,20.555662 
	C26.159111,19.692654 25.530378,19.009995 24.744350,18.096226 
	C26.292700,16.134573 27.670221,16.417061 27.808580,18.839861 
	C27.898888,20.421219 29.274921,23.569233 25.022400,22.421978 
z"/>
<path fill="#9D9D9C" opacity="1.000000" stroke="none" 
	d="
M43.578358,69.469154 
	C41.869518,70.206566 39.826950,70.589836 37.392021,70.903229 
	C38.361721,67.645302 40.582973,67.579857 43.578358,69.469154 
z"/>
<path fill="#9D9D9C" opacity="1.000000" stroke="none" 
	d="
M31.951344,70.817810 
	C30.607893,71.101715 29.216484,71.037743 27.412369,70.903549 
	C28.434563,68.017853 29.959223,66.413551 31.951344,70.817810 
z"/>
<path fill="#9D9D9C" opacity="1.000000" stroke="none" 
	d="
M35.967148,32.853020 
	C34.930218,33.101635 33.861267,33.037743 32.396042,32.903591 
	C33.172329,30.864649 34.353161,29.007092 35.967148,32.853020 
z"/>
<path fill="#9D9D9C" opacity="1.000000" stroke="none" 
	d="
M30.712086,56.486908 
	C29.570663,56.537407 28.315126,56.242138 26.687395,55.809174 
	C27.742792,55.828030 29.170380,55.984585 30.712086,56.486908 
z"/>
<path fill="#9D9D9C" opacity="1.000000" stroke="none" 
	d="
M23.744207,17.535839 
	C23.128870,17.551508 22.438471,17.270065 21.373928,16.910980 
	C21.889570,16.968466 22.779360,17.103598 23.744207,17.535839 
z"/>
<path fill="#000000" opacity="1.000000" stroke="none" 
	d="
M471.900513,63.945492 
	C454.183319,61.306229 450.984131,41.236748 455.702911,27.072479 
	C457.193207,22.599178 460.548950,18.089766 464.283997,15.179178 
	C469.612854,11.026586 478.254669,12.206175 483.630463,19.976233 
	C491.360535,31.149124 491.141022,51.302147 480.437866,59.904869 
	C478.137939,61.753460 475.037109,62.605572 471.900513,63.945492 
z"/>
</svg>